<svg xmlns="http://www.w3.org/2000/svg" viewBox="0 0 269.7 270.5"><path d="M228 206.7H87l-3-12.2h159.7l25.9-112.7-211-25.4L49 0H0v21.3h31l34.2 185.8c-15.1 2.5-26.7 15.6-26.7 31.4 0 17.6 14.3 31.9 31.9 31.9s31.9-14.3 31.9-31.9c0-3.7-.7-7.3-1.8-10.6h97.4c-1.2 3.3-1.8 6.9-1.8 10.6 0 17.6 14.3 31.9 31.9 31.9 17.6 0 31.9-14.3 31.9-31.9 0-17.5-14.3-31.8-31.9-31.8zM62.4 78.4l181.2 21.7-16.8 73.1H79.4l-17-94.8zm8.1 170.8c-5.8 0-10.6-4.8-10.6-10.6S64.7 228 70.5 228s10.6 4.8 10.6 10.6-4.8 10.6-10.6 10.6zm157.5 0c-5.8 0-10.6-4.8-10.6-10.6S222.2 228 228 228s10.6 4.8 10.6 10.6-4.7 10.6-10.6 10.6z" fill="#ea6266"/></svg>